<?xml version="1.0" standalone="no"?>
<!DOCTYPE svg PUBLIC "-//W3C//DTD SVG 20010904//EN"
 "http://www.w3.org/TR/2001/REC-SVG-20010904/DTD/svg10.dtd">
<svg version="1.0" xmlns="http://www.w3.org/2000/svg"
 width="512.000000pt" height="512.000000pt" viewBox="0 0 512.000000 512.000000"
 preserveAspectRatio="xMidYMid meet">
<metadata>
Created by potrace 1.11, written by Peter Selinger 2001-2013
</metadata>
<g transform="translate(0.000000,512.000000) scale(0.100000,-0.100000)"
fill="#000000" stroke="none">
<path d="M0 2560 l0 -2560 2560 0 2560 0 0 2560 0 2560 -2560 0 -2560 0 0
-2560z m3890 2210 c-52 -49 -99 -89 -105 -90 -5 0 10 19 35 43 104 97 150 137
157 137 4 -1 -35 -41 -87 -90z m-450 -70 c0 -5 -5 -10 -12 -10 -6 0 -26 -12
-45 -26 -23 -17 -73 -36 -150 -55 -64 -15 -122 -34 -129 -41 -6 -7 -14 -25
-18 -40 l-6 -28 77 6 c57 4 74 3 63 -5 -18 -13 -21 -12 59 -17 36 -2 66 -5 67
-7 2 -1 -11 -10 -27 -19 -17 -10 -27 -13 -24 -8 4 6 -6 7 -26 3 -20 -4 -30 -2
-26 4 7 12 -152 12 -171 -1 -16 -10 -45 1 -37 14 6 10 -4 13 -42 12 -13 -1
-23 1 -23 4 0 4 17 43 39 89 l39 83 93 16 c197 34 299 43 299 26z m-1177 -47
c37 -40 57 -93 65 -181 12 -126 12 -127 -26 -126 -17 1 -32 -1 -32 -5 0 -9
-116 -8 -126 2 -4 4 -2 7 4 7 6 0 20 10 31 21 14 15 28 20 45 17 14 -3 27 0
29 6 7 19 -5 96 -14 96 -5 0 -22 -20 -38 -45 -15 -24 -31 -42 -34 -39 -3 3 -3
-3 -1 -14 5 -16 -1 -20 -42 -26 -26 -3 -52 -10 -58 -15 -6 -5 -19 -6 -29 -2
-15 5 -5 25 64 136 100 162 123 195 130 195 3 0 17 -12 32 -27z m534 -29 c47
-31 73 -70 73 -111 0 -34 -14 -58 -28 -49 -6 3 -22 2 -36 -4 -19 -7 -26 -6
-26 3 -1 21 -19 -18 -25 -54 -7 -37 -20 -57 -32 -45 -4 4 -1 11 7 16 8 5 11
12 8 15 -4 4 -2 19 4 34 12 31 15 80 5 105 -7 16 -14 18 -63 12 -68 -8 -94
-21 -94 -46 0 -14 -5 -18 -17 -14 -14 5 -15 4 -4 -4 11 -8 11 -16 2 -45 -11
-32 -41 -59 -41 -37 0 16 -49 23 -65 10 -19 -16 -19 -9 0 37 18 43 19 48 2 37
-7 -5 -5 -2 5 8 23 21 23 32 1 24 -10 -4 -7 3 9 17 14 13 31 40 38 61 11 35
14 37 44 32 17 -3 54 1 81 9 74 20 106 18 152 -11z m910 -8 c10 -9 -20 -7 -76
6 -28 6 -48 15 -46 19 5 7 111 -14 122 -25z m222 10 c-11 -10 -403 -196 -413
-195 -6 0 84 47 199 104 179 87 236 112 214 91z m-1972 -73 c18 -46 -53 -238
-94 -254 -37 -14 -53 -11 -53 10 0 53 -11 51 -69 -9 -57 -61 -78 -72 -78 -45
0 9 6 14 12 11 7 -2 18 -1 25 4 10 6 10 12 0 26 -10 17 -11 17 -6 1 3 -11 2
-16 -4 -12 -14 9 -52 -4 -45 -16 4 -5 1 -17 -4 -26 -6 -10 -11 -15 -11 -11 0
4 -17 0 -37 -8 -34 -15 -38 -15 -50 2 -7 10 -13 25 -13 35 0 16 6 19 90 35 19
4 41 14 49 22 13 13 12 14 -8 7 -18 -5 -22 -4 -16 5 5 9 4 11 -4 6 -6 -4 -9
-11 -7 -15 3 -4 -23 -7 -56 -8 -33 0 -63 -5 -67 -10 -10 -15 -39 -23 -43 -12
-2 6 -16 1 -31 -11 -15 -12 -27 -18 -27 -14 0 5 20 60 45 124 70 177 61 161
89 149 33 -16 48 -52 54 -136 2 -40 8 -73 11 -73 4 0 23 16 42 36 18 20 75 67
126 105 132 100 167 116 180 82z m1378 -53 c3 -5 1 -10 -4 -10 -6 0 -11 5 -11
10 0 6 2 10 4 10 3 0 8 -4 11 -10z m560 -67 c-52 -81 -51 -73 -17 -73 24 0 37
10 72 55 24 31 45 54 47 52 2 -2 -8 -25 -23 -50 l-26 -47 39 -1 c42 -1 37 -4
-18 -13 -33 -6 -43 -16 -100 -104 -35 -53 -63 -99 -62 -102 1 -3 -16 -25 -38
-50 -65 -76 -44 -22 45 113 l85 128 -32 -3 c-27 -3 -40 -15 -94 -93 -35 -49
-70 -103 -79 -120 -17 -30 -16 -30 3 -12 11 9 23 17 26 17 4 0 -10 -16 -32
-35 -74 -67 -69 -41 15 89 37 55 73 111 81 123 15 22 15 22 -36 16 -70 -8 -64
3 8 18 56 11 61 14 101 71 41 58 70 76 35 21z m-875 11 c0 -10 -43 -45 -48
-39 -6 6 28 45 40 45 4 0 8 -3 8 -6z m1053 -71 c-7 -2 -21 -2 -30 0 -10 3 -4
5 12 5 17 0 24 -2 18 -5z m-1970 -79 c-18 -28 -49 -48 -62 -39 -12 7 -61 -15
-61 -27 0 -5 -5 -6 -11 -2 -8 4 -8 9 0 17 6 6 11 20 11 32 0 15 2 17 9 6 11
-17 41 -7 41 13 0 22 31 28 47 9 14 -17 14 -17 9 0 -3 11 -2 16 4 12 6 -3 10
-1 10 5 0 6 4 8 10 5 6 -4 3 -16 -7 -31z m219 24 c-9 -9 -15 -9 -24 0 -9 9 -7
12 12 12 19 0 21 -3 12 -12z m138 0 c0 -5 9 -4 19 2 14 7 22 7 27 -2 4 -6 3
-8 -4 -4 -6 3 -13 2 -17 -4 -7 -12 -65 -14 -65 -2 0 13 8 19 25 19 8 0 15 -4
15 -9z m944 -33 c-4 -8 -12 -15 -20 -15 -8 0 -14 7 -14 15 0 8 9 15 20 15 13
0 18 -5 14 -15z m-1104 -19 c0 -3 -4 -8 -10 -11 -5 -3 -10 -1 -10 4 0 6 5 11
10 11 6 0 10 -2 10 -4z m1213 -43 c4 -3 -8 -25 -27 -47 -38 -47 -57 -81 -50
-88 2 -3 -2 -11 -11 -18 -22 -18 -20 16 4 64 18 34 18 37 3 32 -9 -3 1 10 23
29 42 36 48 39 58 28z m533 -8 c8 -19 -19 -61 -48 -76 -20 -10 -20 -8 5 18 43
46 32 62 -13 18 -22 -21 -40 -45 -40 -52 0 -7 -4 -13 -10 -13 -5 0 -10 -7 -10
-15 0 -21 10 -19 66 16 39 25 45 27 29 9 -20 -22 -85 -60 -104 -60 -21 0 -20
35 1 71 22 36 91 99 110 99 5 0 11 -7 14 -15z m-711 -32 c-52 -80 -52 -79 -30
-64 11 8 3 -3 -17 -24 -21 -22 -40 -36 -43 -33 -9 9 22 66 63 116 38 46 56 50
27 5z m76 -1 c-12 -17 -21 -34 -21 -40 0 -5 -9 -19 -19 -31 -11 -13 -22 -28
-24 -34 -2 -7 -8 -9 -12 -4 -10 9 18 60 60 110 35 42 46 41 16 -1z m509 32 c0
-3 -13 -23 -29 -43 -15 -20 -34 -47 -41 -60 l-12 -24 33 23 34 23 -29 -31
c-38 -40 -61 -43 -51 -5 3 15 15 39 26 54 10 15 19 31 19 36 0 13 22 33 37 33
7 0 13 -3 13 -6z m-60 -27 c0 -2 -10 -12 -22 -23 l-23 -19 19 23 c18 21 26 27
26 19z m-2100 -11 c0 -2 -9 -6 -20 -9 -11 -3 -18 -1 -14 4 5 9 34 13 34 5z
m1720 -60 c0 -2 -8 -10 -17 -17 -16 -13 -17 -12 -4 4 13 16 21 21 21 13z m504
-141 c143 -37 226 -153 242 -337 4 -40 12 -80 19 -88 7 -8 16 -25 19 -37 4
-13 14 -23 22 -23 8 0 14 -4 14 -10 0 -5 -7 -10 -15 -10 -9 0 -18 -12 -21 -30
-5 -24 -12 -30 -31 -30 -16 0 -27 -7 -30 -20 -3 -11 -9 -20 -14 -20 -5 0 -9 9
-9 20 0 11 -4 20 -10 20 -5 0 -20 10 -32 23 l-23 22 -495 -5 c-829 -8 -891 -8
-903 11 -15 24 33 150 91 238 68 103 171 203 251 242 62 32 74 34 201 40 74 3
254 6 400 7 209 2 278 -1 324 -13z m-1711 -26 c121 -62 217 -250 217 -426 0
-56 -3 -64 -22 -73 -28 -12 -1434 -29 -1467 -17 -20 6 -23 12 -18 43 8 46 49
135 98 210 45 70 48 84 17 85 -17 1 -15 3 10 10 29 9 33 14 28 33 -4 18 -2 22
16 22 15 -1 24 7 29 24 l7 25 7 -22 c4 -13 9 -23 12 -23 2 0 34 18 70 40 140
84 137 84 513 91 382 7 430 4 483 -22z m157 -685 c0 -8 7 -14 15 -14 12 0 12
-3 -2 -19 -10 -10 -34 -45 -55 -77 -20 -33 -62 -87 -93 -122 l-57 -63 20 -47
c142 -329 -113 -851 -477 -978 -69 -24 -84 -25 -399 -31 l-327 -6 -61 31 c-76
38 -154 113 -187 178 -72 142 -75 367 -8 544 29 75 96 184 152 246 27 30 49
58 49 62 0 4 -11 39 -25 77 -25 72 -35 198 -16 209 5 4 314 11 687 16 373 6
681 14 684 18 3 4 16 15 30 24 24 16 26 16 48 -8 12 -14 22 -32 22 -40z m1735
13 c4 -12 -3 -63 -14 -112 -56 -255 -104 -460 -125 -540 -13 -50 -23 -91 -22
-92 2 -2 52 16 112 38 177 67 289 76 289 24 0 -22 -21 -34 -220 -124 -153 -70
-256 -136 -274 -178 -9 -21 -23 -33 -41 -37 -15 -3 -41 -16 -56 -30 -26 -23
-27 -25 -9 -25 11 -1 31 8 45 19 14 11 31 20 39 20 16 0 72 46 65 53 -7 7 173
49 194 45 11 -2 1 -11 -30 -26 -26 -13 -48 -26 -50 -30 -8 -18 -81 -63 -110
-69 -18 -3 -40 -11 -48 -18 -34 -28 -142 -47 -153 -27 -2 4 -2 2 -1 -5 4 -16
-89 -84 -175 -127 -39 -20 -116 -49 -169 -64 -89 -25 -112 -27 -277 -27 -208
0 -288 14 -398 72 -157 83 -230 223 -229 443 0 113 15 206 67 425 19 77 46
192 60 255 15 63 33 121 40 128 9 10 83 15 316 19 278 6 305 5 318 -11 12 -15
5 -56 -62 -325 -43 -169 -77 -317 -77 -329 0 -37 26 -52 90 -52 52 0 62 4 88
30 25 24 35 50 56 142 96 412 119 505 126 525 11 27 29 28 382 31 l248 2 5
-23z m651 -18 c3 -6 -6 -23 -21 -38 -20 -19 -26 -21 -22 -8 4 11 1 20 -10 24
-14 6 -14 8 3 20 22 16 40 17 50 2z m-4391 -429 c3 -6 -1 -13 -9 -16 -9 -3
-14 -10 -11 -14 3 -5 1 -11 -4 -14 -13 -8 -34 21 -27 39 6 17 42 20 51 5z
m3941 -504 c18 -14 18 -15 -6 -14 -14 1 -31 6 -37 11 -9 6 -19 5 -30 -4 -16
-13 -17 -12 -4 4 16 21 50 22 77 3z m-46 -31 c0 -8 -7 -15 -15 -15 -9 0 -12 6
-9 15 4 8 10 15 15 15 5 0 9 -7 9 -15z m-60 -5 c0 -5 -4 -10 -10 -10 -5 0 -10
5 -10 10 0 6 5 10 10 10 6 0 10 -4 10 -10z m-320 -4 c0 -2 -7 -7 -16 -10 -8
-3 -12 -2 -9 4 6 10 25 14 25 6z m291 -53 c-8 -15 -10 -15 -11 -2 0 17 10 32
18 25 2 -3 -1 -13 -7 -23z m-27 -9 c3 -8 2 -12 -4 -9 -6 3 -10 10 -10 16 0 14
7 11 14 -7z m-749 -416 c-82 -10 -213 -27 -290 -38 -77 -11 -201 -25 -275 -30
-74 -6 -175 -15 -225 -20 -49 -5 -182 -16 -295 -25 -113 -9 -335 -27 -493 -40
-244 -21 -459 -32 -352 -18 27 3 257 31 585 69 125 15 147 18 380 54 69 10
184 27 255 36 72 9 150 19 175 23 25 3 189 6 365 6 l320 1 -150 -18z m-133
-198 c51 0 60 -8 29 -27 -22 -14 -171 -39 -281 -47 -112 -9 -421 -35 -540 -46
-319 -30 -945 -81 -959 -78 -9 2 56 12 144 21 470 53 678 78 755 91 162 28
346 56 464 70 65 9 121 18 125 22 3 3 53 4 110 0 57 -3 126 -6 153 -6z m123
-10 c-3 -5 -16 -10 -28 -9 -21 0 -21 1 -2 9 28 12 37 12 30 0z m60 0 c-3 -5
-16 -10 -28 -10 -18 0 -19 2 -7 10 20 13 43 13 35 0z m19 -250 c44 0 77 -2 75
-4 -6 -7 -320 -54 -404 -61 -38 -4 -173 -17 -300 -31 -447 -47 -1220 -124
-1244 -124 -13 0 -22 2 -20 5 5 4 215 29 634 75 261 29 411 49 485 65 36 8
135 26 220 40 85 14 171 30 190 35 19 5 91 7 160 5 69 -3 161 -5 204 -5z
m-868 -1055 c-19 -30 -33 -29 -54 3 -14 21 -13 22 16 16 18 -4 32 -1 37 6 4 6
9 9 12 6 3 -3 -2 -17 -11 -31z"/>
<path d="M1726 4314 c-9 -24 -4 -24 18 -3 16 16 17 19 4 19 -9 0 -19 -7 -22
-16z"/>
<path d="M2045 4281 c-6 -11 9 -23 19 -14 9 9 7 23 -3 23 -6 0 -12 -4 -16 -9z"/>
<path d="M3330 3941 c-191 -6 -196 -7 -255 -36 -76 -38 -179 -140 -233 -231
-42 -70 -67 -144 -44 -130 7 4 25 -1 42 -10 19 -12 26 -21 18 -25 -7 -4 5 -11
27 -15 43 -8 1017 4 1040 12 8 3 12 11 9 18 -3 7 6 17 19 23 15 7 27 23 30 42
4 17 13 31 21 31 7 0 27 13 42 29 16 16 51 39 77 51 53 25 53 27 15 107 -23
50 -65 88 -128 117 -41 19 -64 21 -265 22 -121 1 -308 -2 -415 -5z"/>
<path d="M1470 3916 c-30 -7 -69 -20 -87 -29 -28 -15 -31 -20 -27 -58 2 -22 6
-45 9 -50 4 -5 2 -9 -4 -9 -5 0 -10 -8 -9 -17 1 -36 -13 -108 -22 -117 -6 -6
-10 -19 -10 -31 0 -12 -5 -26 -12 -33 -8 -8 -8 -15 2 -27 19 -23 -7 -46 -62
-56 -24 -4 200 -7 497 -6 l540 3 51 28 c29 15 64 29 78 29 23 2 26 6 26 37 0
126 -91 289 -185 331 -36 17 -72 19 -385 18 -232 0 -363 -5 -400 -13z"/>
<path d="M1679 3226 c-3 -3 -147 -6 -320 -7 -174 0 -328 -4 -344 -6 -27 -6
-28 -6 -21 -66 3 -36 18 -84 37 -123 l31 -63 -47 -53 -48 -53 68 -3 c38 -2 73
2 79 8 7 7 6 10 -3 10 -7 0 -9 5 -6 10 3 6 1 10 -4 10 -6 0 -11 5 -11 12 0 9
3 9 12 0 8 -8 64 -12 177 -14 105 0 149 -4 121 -8 -25 -4 82 -8 240 -10 356
-4 541 -3 548 5 6 6 -12 8 -43 6 -19 -1 -19 -1 -2 10 10 6 24 8 31 6 29 -11
38 9 20 46 l-17 36 41 45 c37 40 41 48 32 71 -5 14 -6 25 -2 25 4 0 0 6 -9 13
-15 12 -31 42 -33 62 -3 28 -55 35 -287 35 -130 0 -238 -2 -240 -4z m-654
-336 c-3 -5 -12 -10 -18 -10 -7 0 -6 4 3 10 19 12 23 12 15 0z m690 0 c46 -7
43 -8 -33 -8 -45 1 -85 5 -88 9 -6 11 52 10 121 -1z m273 -7 c-10 -2 -28 -2
-40 0 -13 2 -5 4 17 4 22 1 32 -1 23 -4z"/>
<path d="M2205 2881 c-3 -5 -1 -12 5 -16 5 -3 10 1 10 9 0 18 -6 21 -15 7z"/>
<path d="M1553 2690 c-111 -23 -216 -125 -199 -194 9 -35 54 -49 139 -44 80 5
142 31 194 81 49 46 56 124 15 146 -27 15 -104 20 -149 11z"/>
<path d="M1035 2614 c-98 -38 -132 -45 -177 -40 l-47 5 -10 -50 c-15 -70 -13
-224 3 -286 33 -125 105 -215 211 -264 l60 -28 325 8 325 7 78 37 c151 70 297
219 376 382 38 77 71 181 71 223 0 20 -1 20 -36 1 -20 -10 -56 -21 -81 -25
-37 -5 -49 -2 -81 20 -46 31 -52 32 -102 6 -29 -15 -59 -20 -113 -20 l-73 0
-13 -35 c-16 -46 -94 -108 -163 -131 -64 -21 -171 -24 -215 -6 -42 18 -67 70
-58 123 7 39 7 39 -20 29 -54 -21 -92 -13 -156 31 -38 26 -61 29 -104 13z"/>
<path d="M3567 3243 c-10 -18 -87 -365 -87 -393 0 -9 3 -11 8 -5 4 6 78 11
177 13 234 3 347 12 342 25 -2 6 -14 14 -28 17 -23 6 -23 6 7 13 24 5 33 12
37 34 3 15 2 30 -2 33 -5 3 -11 27 -15 54 -3 27 -14 58 -23 68 -14 16 -15 21
-4 28 10 5 4 10 -18 15 -17 4 -29 11 -26 16 9 13 -14 49 -31 49 -8 0 -13 4
-10 9 13 20 -52 31 -184 31 -76 0 -141 -3 -143 -7z"/>
<path d="M2945 3229 c-17 -4 -54 -29 -84 -54 -29 -25 -59 -45 -67 -45 -8 0
-14 -4 -14 -10 0 -15 -82 -71 -97 -66 -13 5 -45 -86 -57 -164 l-6 -36 67 4
c193 9 237 9 341 3 63 -3 116 -2 119 2 3 5 9 3 14 -4 6 -11 9 -11 13 1 11 30
96 355 96 367 0 10 -33 13 -147 12 -82 0 -162 -5 -178 -10z"/>
<path d="M4043 2955 c-3 -9 -3 -18 -1 -21 3 -3 8 4 11 16 6 23 -1 27 -10 5z"/>
<path d="M3065 2618 c-72 -34 -119 -35 -187 -6 -49 21 -51 21 -99 4 -46 -17
-120 -18 -204 -4 -17 3 -21 -5 -28 -62 -22 -182 27 -350 129 -439 183 -161
630 -173 904 -24 108 58 130 78 130 121 1 79 72 179 180 252 51 34 57 43 77
106 12 37 21 70 18 72 -2 3 -20 -5 -40 -17 -22 -13 -62 -23 -103 -27 -58 -6
-74 -3 -110 15 l-42 21 -62 -21 c-62 -21 -143 -22 -203 -4 -16 5 -24 0 -34
-18 -21 -39 -69 -61 -133 -62 -72 0 -109 25 -123 82 l-10 40 -60 -29z"/>
<path d="M4007 2284 c-16 -9 -27 -18 -24 -20 7 -7 57 18 57 28 0 10 1 10 -33
-8z"/>
</g>
</svg>
